<svg id="Layer_1" data-name="Layer 1" xmlns="http://www.w3.org/2000/svg" viewBox="0 0 657 765"><defs><style>.cls-1{opacity:0.1;}.cls-2{fill:#fff;}</style></defs><rect class="cls-1" y="282" width="657" height="483"/><path class="cls-2" d="M542,71.2a4.69,4.69,0,0,0-6.4,1.73,1.56,1.56,0,1,0,2.71,1.55A1.56,1.56,0,0,1,541,76a1.56,1.56,0,1,0,2.71,1.55A4.68,4.68,0,0,0,542,71.2Zm0,0" transform="translate(19 -30)"/><path class="cls-2" d="M558.43,78.17A1.72,1.72,0,0,0,559,76a1.56,1.56,0,0,1,2.71-1.56,1.56,1.56,0,1,0,2.71-1.55,4.69,4.69,0,0,0-8.13,4.66c.27.48,1.36,1.32,2.13.58Zm0,0" transform="translate(19 -30)"/><path class="cls-2" d="M588.44,30a1.56,1.56,0,0,0-1.56,1.56c0,.11-.09,11-7.56,12.36l-3.65.32c2.5-4.27,2.16-10.82,2.14-11.21a1.56,1.56,0,1,0-3.12.19,26.11,26.11,0,0,1-.41,5.74c-.47,2.39-1.53,5.32-3.93,5.75,0,0-4.14.36-4.1.29,2.22-3.81.61-8.76.53-9a1.56,1.56,0,0,0-2.94,1s1.26,3.7-.23,6.25a5.15,5.15,0,0,1-3.37,2.29,11.71,11.71,0,0,0-1.31.36c-3.88,1.5-5.24,6-5.69,8.25a31,31,0,0,0-6.48,0C546.31,52,545,47.48,541.07,46a5.42,5.42,0,0,0-1.31-.36,5.15,5.15,0,0,1-3.37-2.29c-1.49-2.54-.25-6.19-.23-6.25a1.56,1.56,0,1,0-2.94-1c-.08.2-1.53,5.15.69,9,0,.07-4.24-.28-4.26-.29-4.81-.86-4.35-11.39-4.34-11.49a1.56,1.56,0,1,0-3.12-.19c0,.39-.36,6.94,2.14,11.21l-3.65-.32c-7.44-1.37-7.55-12.25-7.56-12.36a1.56,1.56,0,0,0-3.12,0,23.45,23.45,0,0,0,1.2,6.87c1.65,4.87,4.76,7.83,9,8.58l19.24,1.72c2.78.68,3.86,4.2,4.23,6A21.35,21.35,0,0,0,536,58a10.44,10.44,0,0,0-.92-1.06c-3.85-3.85-16.72-4.27-18.17-4.31a1.6,1.6,0,0,0-1.15.46,1.57,1.57,0,0,0-.45,1.14c0,1.46.45,14.33,4.3,18.18a12.17,12.17,0,0,0,8.06,3.28c.5,0,1,0,1.5,0a59.12,59.12,0,0,0,5.63,17.91,37.08,37.08,0,0,0,5.84,8.73c.07,4.26,4.25,7.7,9.37,7.7s9.3-3.44,9.37-7.7a37.08,37.08,0,0,0,5.84-8.73,59.35,59.35,0,0,0,5.63-17.9c.42,0,.83,0,1.25,0a12.15,12.15,0,0,0,8.06-3.28c3.85-3.85,4.27-16.72,4.31-18.18a1.57,1.57,0,0,0-1.6-1.6c-1.46,0-14.33.46-18.18,4.31a10.85,10.85,0,0,0-.83,1,21.35,21.35,0,0,0-7.52-3.15c.37-1.8,1.45-5.32,4.23-6L579.8,47c4.24-.75,7.35-3.71,9-8.58a23.45,23.45,0,0,0,1.2-6.87A1.56,1.56,0,0,0,588.44,30ZM530.76,61.9a1.6,1.6,0,0,0-2.2.24,1.57,1.57,0,0,0,.24,2.2A5.5,5.5,0,0,1,530,65.67,18.18,18.18,0,0,0,528.91,72v.51a9.48,9.48,0,0,1-7.1-2.35c-2-2-3-9.28-3.32-14.37,5.09.28,12.36,1.31,14.37,3.32a6.12,6.12,0,0,1,.73.87,15.82,15.82,0,0,0-2.07,2.58,10,10,0,0,0-.76-.69Zm19.24,45c-3.45,0-6.25-2.1-6.25-4.68s2.8-4.69,6.25-4.69,6.25,2.1,6.25,4.69-2.8,4.68-6.25,4.68Zm16.89-47.73c2-2,9.28-3,14.37-3.32-.28,5.09-1.31,12.36-3.32,14.37a9.16,9.16,0,0,1-6,2.37,8.38,8.38,0,0,1-.87,0V72a18.13,18.13,0,0,0-1.17-6.6,5.28,5.28,0,0,1,1-1.09,1.56,1.56,0,0,0-2-2.44c-.22.18-.42.36-.61.54a16.18,16.18,0,0,0-2.12-2.57,5.55,5.55,0,0,1,.62-.73ZM568,72c0,7.06-4,19.53-9.59,26.65a10.32,10.32,0,0,0-16.76,0C536,91.56,532,79.09,532,72c0-11,9.68-14.84,18-14.84S568,61.07,568,72Zm0,0" transform="translate(19 -30)"/><path class="cls-2" d="M525.62,60.94a1.56,1.56,0,1,1-1.56-1.57,1.56,1.56,0,0,1,1.56,1.57Zm0,0" transform="translate(19 -30)"/><path class="cls-2" d="M577.34,60.94a1.56,1.56,0,1,1-1.56-1.57,1.56,1.56,0,0,1,1.56,1.57Zm0,0" transform="translate(19 -30)"/><path class="cls-2" d="M406.2,210.41h-25a1.17,1.17,0,1,0,0,2.34h25a1.17,1.17,0,0,0,0-2.34Zm0,0" transform="translate(19 -30)"/><path class="cls-2" d="M375.78,210.41h-4a1.17,1.17,0,0,0,0,2.34h4a1.17,1.17,0,0,0,0-2.34Zm0,0" transform="translate(19 -30)"/><path class="cls-2" d="M384.09,246.35H371.82a1.18,1.18,0,0,0,0,2.35h12.27a1.18,1.18,0,0,0,0-2.35Zm0,0" transform="translate(19 -30)"/><path class="cls-2" d="M389,234.37H371.82a1.18,1.18,0,0,0,0,2.35H389a1.18,1.18,0,0,0,0-2.35Zm0,0" transform="translate(19 -30)"/><path class="cls-2" d="M397.38,222.39H371.82a1.17,1.17,0,0,0,0,2.34h25.56a1.17,1.17,0,0,0,0-2.34Zm0,0" transform="translate(19 -30)"/><path class="cls-2" d="M419.57,198.41H371.11a7.79,7.79,0,0,0-7.79,7.79v46.14h-12.2a1.17,1.17,0,0,0-.83.34,1.21,1.21,0,0,0-.34.84c.05,4.66,3.39,8.17,7.78,8.17h48.62a7.79,7.79,0,0,0,7.78-7.79V239.69a1.17,1.17,0,0,0-2.34,0V253.9a5.45,5.45,0,0,1-5.44,5.44h-.15a5.56,5.56,0,0,1-5.44-5.84,1.17,1.17,0,0,0-1.17-1.16H365.67V206.2a5.45,5.45,0,0,1,5.44-5.44H414l-.1.1-.13.13-.12.15-.12.14-.12.15-.11.14-.11.15-.1.15-.1.16a1.4,1.4,0,0,0-.1.16l-.09.16a1.4,1.4,0,0,0-.1.16l-.08.17-.09.17c0,.05-.05.11-.07.17a1.3,1.3,0,0,0-.08.17l-.07.18s-.05.11-.07.17l-.06.18-.06.18a1.33,1.33,0,0,0-.05.19,1.21,1.21,0,0,0-.05.18c0,.06,0,.13,0,.19s0,.12,0,.18a1.55,1.55,0,0,1,0,.21l0,.17a1.64,1.64,0,0,0,0,.22,1,1,0,0,0,0,.17,2,2,0,0,0,0,.25.66.66,0,0,0,0,.14c0,.13,0,.26,0,.4v10.4a1.17,1.17,0,1,0,2.34,0v-8.84h12.06a1.15,1.15,0,0,0,.84-.35,1.17,1.17,0,0,0,.34-.83c-.05-4.66-3.4-8.17-7.8-8.17ZM398.5,254.68c0,.12,0,.24.05.36l0,.12c0,.08,0,.16,0,.24l0,.14a1.6,1.6,0,0,1,.05.21.57.57,0,0,1,0,.14l.06.2c0,.05,0,.1.05.14l.06.19,0,.15.07.18.06.14c0,.06.05.12.08.19l.06.13.09.19.06.12a2.12,2.12,0,0,0,.11.21.56.56,0,0,0,.05.08,2.75,2.75,0,0,0,.17.29l0,.07c.05.07.1.14.14.21l.07.1.13.18.08.1a1.83,1.83,0,0,0,.13.16l.08.1.14.15a.43.43,0,0,0,.09.1l.06.07H357.73a5.42,5.42,0,0,1-5.32-4.66Zm15.69-49.26v0s0-.07,0-.11l0-.14a.5.5,0,0,1,0-.12l0-.14,0-.11a.93.93,0,0,0,0-.13.56.56,0,0,1,0-.12.93.93,0,0,1,0-.13s0-.07,0-.11l0-.12a.61.61,0,0,1,.05-.12.54.54,0,0,1,.05-.11.67.67,0,0,1,.06-.12l0-.09c0-.05,0-.09.07-.14l0-.05a5.21,5.21,0,0,1,.36-.55h0l.13-.16,0,0,.13-.16,0,0,.14-.15,0,0,.15-.15,0,0,.17-.15h0a5.38,5.38,0,0,1,2.58-1.25h0l.24,0h0l.23,0h0l.21,0h.26a5.43,5.43,0,0,1,5.33,4.66Zm0,0" transform="translate(19 -30)"/><path class="cls-2" d="M430,220v0a1.65,1.65,0,0,0-.06-.32h0l-.06-.15v0l-.08-.12,0,0-.1-.11,0,0a.52.52,0,0,0-.11-.1h0l-.14-.08h0l-.15-.07h0l-.15,0h0l-.16,0c-9.81-.25-22.61,2.11-29.08,9.49-2.83,3.23-4.13,7.33-5.4,11.3-.1.32-.2.65-.31,1v0l-2,7a1.17,1.17,0,0,0,2.26.64l1.83-6.53a36.58,36.58,0,0,1,6.5-2.21c1.27-.35,2.71-.74,4.45-1.27,3.76-1.16,11-6,14.29-9.59a79.09,79.09,0,0,1,8.17-7.8h0l.12-.11h0l.09-.13,0,0a1,1,0,0,0,.13-.3v0a1.1,1.1,0,0,0,0-.16h0a.37.37,0,0,0,0-.11v0ZM401.5,229.9c2.73-3.12,6.91-5.47,12.43-7a46.32,46.32,0,0,1,4.67-1,93.29,93.29,0,0,0-10.23,5.95,94.39,94.39,0,0,0-10.18,7.79,19,19,0,0,1,3.31-5.74Zm18.14-2.75c-3.24,3.5-10.21,8-13.26,8.94-1.7.52-3.12.9-4.37,1.25s-2.16.58-3.18.91c.46-.44,1-.93,1.62-1.48a92.68,92.68,0,0,1,9.23-7c5.92-4,11.27-6.73,15.2-7.94-1.7,1.57-3.38,3.27-5.24,5.28Zm0,0" transform="translate(19 -30)"/><path class="cls-2" d="M419.33,30H368.67a9.35,9.35,0,0,0-9.34,9.33v61.34a9.35,9.35,0,0,0,9.34,9.33h48a1.34,1.34,0,0,0,1.33-1.33V94h1.33a1.34,1.34,0,0,0,1.34-1.33V31.33A1.34,1.34,0,0,0,419.33,30ZM362,94.14V39.33a6.67,6.67,0,0,1,6.67-6.66H370V91.33h-1.33c-.32,0-.64,0-1,0l-.31.05a6.17,6.17,0,0,0-.62.1,3.54,3.54,0,0,0-.38.09l-.52.14-.4.14-.47.18-.39.18c-.12.07-.29.14-.43.21l-.37.23-.4.25c-.13.08-.24.18-.36.26s-.25.18-.36.28l-.34.31c-.11.1-.22.19-.33.3s0,0,0,0Zm53.33,5.19H368.67V102h46.66v5.33H368.67a6.67,6.67,0,1,1,0-13.33h46.66Zm2.67-8H372.67V32.67H418Zm0,0" transform="translate(19 -30)"/><path class="cls-2" d="M394.69,75.17a1.32,1.32,0,0,0,1.28,0c.63-.34,15.36-8.48,15.36-17.17a9.33,9.33,0,0,0-16-6.53,9.33,9.33,0,0,0-16,6.53c0,8.69,14.74,16.83,15.36,17.17Zm-6-23.84a6.64,6.64,0,0,1,5.55,3,1.4,1.4,0,0,0,1.11.56,1.38,1.38,0,0,0,1.11-.56A6.67,6.67,0,0,1,408.67,58c0,5.6-9.09,12-13.34,14.47C391.09,70,382,63.61,382,58a6.68,6.68,0,0,1,6.67-6.67Zm0,0" transform="translate(19 -30)"/><path class="cls-2" d="M230,30a28.14,28.14,0,0,0-23.93,42.91l22.33,36a2.34,2.34,0,0,0,2,1.11h0a2.35,2.35,0,0,0,2-1.14l21.76-36.33A28.14,28.14,0,0,0,230,30Zm20.14,40.13-19.79,33L210.06,70.44a23.44,23.44,0,1,1,40.08-.31Zm0,0" transform="translate(19 -30)"/><path class="cls-2" d="M230,44.06a14.07,14.07,0,1,0,14.06,14.06A14.08,14.08,0,0,0,230,44.06Zm0,23.47a9.41,9.41,0,1,1,9.39-9.41A9.41,9.41,0,0,1,230,67.53Zm0,0" transform="translate(19 -30)"/><path class="cls-2" d="M266.08,377.62V362.27a2.28,2.28,0,0,0-.92-1.83,2.33,2.33,0,0,0-2-.34l-45.74,14.54a2.27,2.27,0,0,0-1.58,2.16v44.78a15.92,15.92,0,0,0-17.79.3,9.14,9.14,0,0,0,0,15.25,15.88,15.88,0,0,0,18.21,0,9.5,9.5,0,0,0,4.11-7.62V393.83l41.22-13.11V407a15.41,15.41,0,0,0-8.69-2.56,15.22,15.22,0,0,0-9.1,2.87,9.13,9.13,0,0,0,0,15.25,15.88,15.88,0,0,0,18.21,0,9.49,9.49,0,0,0,4.1-7.63Zm-58.95,57.85c-4.72,0-8.69-2.73-8.69-6s4-6,8.69-6,8.68,2.73,8.68,6-4,6-8.68,6Zm13.21-46.4V378.44l41.22-13.09V376Zm32.55,31.8c-4.71,0-8.68-2.73-8.68-6s4-6,8.68-6,8.68,2.73,8.68,6-4,6-8.68,6Zm0,0" transform="translate(19 -30)"/><path class="cls-2" d="M557.91,271.31V225.78a3.69,3.69,0,0,1,3.69-3.69H578a3.69,3.69,0,0,0,3.69-3.69V210a3.69,3.69,0,0,0-3.69-3.69H561.6a3.69,3.69,0,0,1-3.69-3.69V188.69a3.69,3.69,0,0,0-3.69-3.69h-8.44a3.69,3.69,0,0,0-3.69,3.69v13.89a3.69,3.69,0,0,1-3.69,3.69H522.05a3.69,3.69,0,0,0-3.69,3.69v8.44a3.69,3.69,0,0,0,3.69,3.69H538.4a3.69,3.69,0,0,1,3.69,3.69v45.53a3.69,3.69,0,0,0,3.69,3.69h8.44A3.69,3.69,0,0,0,557.91,271.31Zm0,3.69" transform="translate(19 -30)"/><path class="cls-2" d="M86,429.28H83.33a4,4,0,0,0-4,4V436a4,4,0,0,0,4,4H86a4,4,0,0,0,4-4v-2.67a4,4,0,0,0-4-4ZM87.33,436A1.34,1.34,0,0,1,86,437.28H83.33A1.34,1.34,0,0,1,82,436v-2.67A1.33,1.33,0,0,1,83.33,432H86a1.33,1.33,0,0,1,1.33,1.33Zm0,0" transform="translate(19 -30)"/><path class="cls-2" d="M99.68,424.3a4,4,0,0,0-5.63-.59L92,425.39a4,4,0,0,0-.59,5.62l1.67,2.07a4,4,0,0,0,2.69,1.46l.43,0a4,4,0,0,0,2.51-.9l2.07-1.67a4,4,0,0,0,.59-5.63Zm-.59,5.62L97,431.6a1.32,1.32,0,0,1-1.87-.19l-1.68-2.08a1.32,1.32,0,0,1,.2-1.87l2.07-1.68a1.35,1.35,0,0,1,.84-.3h.14a1.31,1.31,0,0,1,.89.49l1.68,2.07a1.33,1.33,0,0,1-.19,1.87Zm0,0" transform="translate(19 -30)"/><path class="cls-2" d="M104.06,396.18a4,4,0,0,0,.15-3.06l-.9-2.51a4,4,0,0,0-5.11-2.42l-2.51.89a4,4,0,0,0-2.42,5.11l.9,2.52a4,4,0,0,0,5.11,2.42l2.51-.9a4,4,0,0,0,2.27-2.05ZM101.65,395a1.31,1.31,0,0,1-.76.68l-2.51.9a1.34,1.34,0,0,1-1.7-.81l-.9-2.51a1.34,1.34,0,0,1,.8-1.71l2.51-.89a1.34,1.34,0,0,1,1.71.8l.89,2.52a1.34,1.34,0,0,1,0,1Zm0,0" transform="translate(19 -30)"/><path class="cls-2" d="M106,400h-2.67a4,4,0,0,0-4,4v2.67a4,4,0,0,0,4,4H106a4,4,0,0,0,4-4V404a4,4,0,0,0-4-4Zm1.33,6.67A1.34,1.34,0,0,1,106,408h-2.67a1.33,1.33,0,0,1-1.33-1.33V404a1.32,1.32,0,0,1,1.33-1.33H106a1.33,1.33,0,0,1,1.33,1.33Zm0,0" transform="translate(19 -30)"/><path class="cls-2" d="M72.67,394.62A6.67,6.67,0,1,0,66,388.45a6.66,6.66,0,0,0,6.65,6.17Zm-3.38-4.53,2.37-.54.53,2.37a4.05,4.05,0,0,1-2.9-1.83Zm5.5,1.24L74.26,389l2.36-.53a4,4,0,0,1-1.83,2.88Zm1.26-5.5-2.38.54L73.14,384a4,4,0,0,1,2.91,1.83Zm-5.52-1.24.54,2.36-2.36.53a4,4,0,0,1,1.82-2.89Zm0,0" transform="translate(19 -30)"/><path class="cls-2" d="M108.66,378.62a1.34,1.34,0,0,0-1.33,1.33v1.62c-2.93.61-11.74,1.6-14.73-7.37a14.17,14.17,0,0,0-1-2.17,4,4,0,0,0,.26-5.61l-1.79-2a4,4,0,0,0-5.65-.29l-.56.5c-9.91-5.71-26.12-7-36,.94A12.26,12.26,0,0,0,43,373.7l-1.4.34a4,4,0,0,0-2.95,4.82l.62,2.59a4,4,0,0,0,3.89,3.07,4.24,4.24,0,0,0,.94-.11l.8-.2c.71,1.81,1.53,3.6,2.34,5.35.67,1.44,1.28,2.81,1.84,4.16l-2.3,1a1.33,1.33,0,1,0,1.08,2.43l2.18-1c1,3.18,1.09,5.4.12,7.08a19.84,19.84,0,0,1-4,4.74l-.12-.15a4,4,0,0,0-5.62-.64l-2.09,1.65a4,4,0,0,0-.64,5.62l.12.15c-4.18,3.48-7.8,7.76-7.8,14.62,0,6.43,5.22,10.64,13.31,10.72h.27a28.24,28.24,0,0,0,10-2A4,4,0,0,0,59,439.41l2.3-1.33a4,4,0,0,0,1.47-5.47l-.07-.13a25.75,25.75,0,0,0,4.39-5.15c.58-.9,1.19-1.75,1.82-2.57a4,4,0,0,0,5.54-.1l1.89-1.88a4,4,0,0,0,.39-5.18,21,21,0,0,1,5.3-2.36A4,4,0,0,0,86,418.62h2.66a4,4,0,0,0,3.88-3.06,17.07,17.07,0,0,1,7.09,5.24,1.34,1.34,0,0,0,2.28-.38,1.34,1.34,0,0,0-.22-1.32,19.78,19.78,0,0,0-9-6.32V412a4,4,0,0,0-4-4H86a4,4,0,0,0-4,4v.55a24.11,24.11,0,0,0-7.12,3.13l-.4-.4a4,4,0,0,0-5.66,0l-1.88,1.89a4,4,0,0,0,0,5.65l.09.1c-.75,1-1.48,2-2.16,3a22.79,22.79,0,0,1-3.53,4.24A4,4,0,0,0,56,428.84l-2.31,1.33a4,4,0,0,0-1.47,5.47l0,0a25.49,25.49,0,0,1-8.89,1.67c-5.16-.05-10.68-2.18-10.68-8.05,0-5.5,2.7-9.08,6.82-12.54a4,4,0,0,0,5.48.5l2.09-1.66a4,4,0,0,0,.75-5.44,22.36,22.36,0,0,0,4.68-5.53c1.73-3,1-6.53,0-9.49l3.91-1.74a5.3,5.3,0,0,0,6.84,2A12,12,0,1,0,61,385.27a5.28,5.28,0,0,0-5.34,5.54l-4.11,1.82c-.57-1.36-1.19-2.74-1.86-4.19-.75-1.62-1.51-3.29-2.18-4.94A4,4,0,0,0,49.67,379L49,376.35a4,4,0,0,0-3.26-3,9.78,9.78,0,0,1,3.72-5.69c8.82-7.05,23.21-6,32.38-1.08a4,4,0,0,0,.28,5l1.79,2a4,4,0,0,0,2.76,1.31h.21a4,4,0,0,0,2.66-1,10.89,10.89,0,0,1,.49,1.18c2.51,7.53,8.62,9.59,13.73,9.59a18.92,18.92,0,0,0,3.53-.32v1a1.33,1.33,0,0,0,2.66,0V380a1.33,1.33,0,0,0-1.33-1.33ZM84.66,412A1.33,1.33,0,0,1,86,410.62h2.66A1.33,1.33,0,0,1,90,412v2.67A1.34,1.34,0,0,1,88.66,416H86a1.34,1.34,0,0,1-1.34-1.33ZM68.83,419l1.88-1.89a1.34,1.34,0,0,1,1.89,0L74.48,419a1.33,1.33,0,0,1,0,1.88l-1.88,1.89a1.34,1.34,0,0,1-1.89,0l-1.88-1.89a1.33,1.33,0,0,1,0-1.88ZM55,432.48l2.3-1.33A1.35,1.35,0,0,1,58,431a1.33,1.33,0,0,1,1.16.67L60.49,434a1.27,1.27,0,0,1,.13,1,1.33,1.33,0,0,1-.62.81l-2.3,1.33a1.32,1.32,0,0,1-1.83-.49l-1.33-2.31a1.32,1.32,0,0,1-.14-1,1.34,1.34,0,0,1,.63-.81Zm-9.63-19-2.09,1.66a1.33,1.33,0,0,1-1.86-.21l-.73-.91-.93-1.17A1.34,1.34,0,0,1,40,411l2.09-1.66a1.34,1.34,0,0,1,1.87.22l1.66,2.08a1.35,1.35,0,0,1-.22,1.88Zm25.21-34.64a9.33,9.33,0,1,1-7,11.16,9.34,9.34,0,0,1,7-11.16ZM60.37,388l.3,0a11.69,11.69,0,0,0,1.15,5.13l-.28.1a2.67,2.67,0,0,1-1.17-5.2ZM46.44,377l.63,2.6a1.33,1.33,0,0,1-1,1.6l-2.59.63a1.35,1.35,0,0,1-1.61-1l-.62-2.6a1.29,1.29,0,0,1,.16-1,1.32,1.32,0,0,1,.82-.6l2.59-.62a1.28,1.28,0,0,1,1,.16,1.32,1.32,0,0,1,.6.82Zm40.41-4.77a1.28,1.28,0,0,1-.92-.44l-1.79-2a1.33,1.33,0,0,1,.1-1.88l2-1.79a1.32,1.32,0,0,1,.89-.34h.07a1.32,1.32,0,0,1,.92.44l1.79,2a1.34,1.34,0,0,1-.1,1.89l-2,1.78a1.27,1.27,0,0,1-1,.34Zm0,0" transform="translate(19 -30)"/><path class="cls-2" d="M263.66,259.83a44.9,44.9,0,0,0-.87-60.61s0,0,0,0A44.93,44.93,0,0,0,231.56,185l-.88,0-.68,0-.68,0-.87,0a44.89,44.89,0,0,0-31.21,14.16l0,0h0a44.9,44.9,0,0,0-.87,60.61.06.06,0,0,1,0,.05.43.43,0,0,1,.1.09,44.88,44.88,0,0,0,32,15l.87,0h1.36l.87,0h0a44.91,44.91,0,0,0,32-15s.05,0,.07-.07l0,0Zm-75.52-28.28h18.63a57.16,57.16,0,0,0,3.75,19,57.24,57.24,0,0,0-12.59,6.41,41.66,41.66,0,0,1-9.79-25.37Zm10.64-29.44a57.4,57.4,0,0,0,12.26,6,57.28,57.28,0,0,0-4.27,20.32H188.14a41.63,41.63,0,0,1,10.64-26.34Zm73.08,26.34H253.23A57.27,57.27,0,0,0,249,208.13a57.4,57.4,0,0,0,12.26-6,41.68,41.68,0,0,1,10.63,26.34Zm-43.41-20.23a54.51,54.51,0,0,1-13.14-2,54.11,54.11,0,0,1,13.14-17.13Zm0,3.1v17.13H209.88A54.1,54.1,0,0,1,214,209.1a57.68,57.68,0,0,0,14.44,2.22Zm3.1,0A57.83,57.83,0,0,0,246,209.1a54.1,54.1,0,0,1,4.13,19.35H231.55Zm0-3.1V189.1a54.15,54.15,0,0,1,13.15,17.13,54.67,54.67,0,0,1-13.15,2Zm16.16-2.94a57.46,57.46,0,0,0-12.25-16.81A41.78,41.78,0,0,1,259,199.83a54.34,54.34,0,0,1-11.32,5.45Zm-35.41,0A53.87,53.87,0,0,1,201,199.83a41.78,41.78,0,0,1,23.56-11.36,57.25,57.25,0,0,0-12.24,16.81Zm-2.42,26.27h18.57v15.58a57.11,57.11,0,0,0-15,2.39,54.12,54.12,0,0,1-3.58-18Zm18.57,18.68V270.9a54.32,54.32,0,0,1-13.79-18.49,54,54,0,0,1,13.79-2.18Zm3.1,20.67V250.23a54,54,0,0,1,13.79,2.18,54.19,54.19,0,0,1-13.79,18.49Zm0-23.77V231.55h18.58a54,54,0,0,1-3.59,18,56.71,56.71,0,0,0-15-2.4Zm21.68-15.58h18.63a41.66,41.66,0,0,1-9.79,25.37,57.39,57.39,0,0,0-12.58-6.41,57.15,57.15,0,0,0,3.74-19ZM200,259.25a54.26,54.26,0,0,1,11.66-5.87,57.24,57.24,0,0,0,12.84,18.15A41.77,41.77,0,0,1,200,259.25Zm35.42,12.28a57.13,57.13,0,0,0,12.84-18.15A54.56,54.56,0,0,1,260,259.25a41.83,41.83,0,0,1-24.51,12.28Zm0,0" transform="translate(19 -30)"/><path class="cls-2" d="M109.71,262.53,99,228.21a3.85,3.85,0,0,0-.31-6.9l3.25-13a11.57,11.57,0,0,0,.35-2.81v-1.09a6.68,6.68,0,0,0-5.16-6.49V190H94.51v7.83a6.66,6.66,0,0,0-5.13,4.11l0,.07,0-.07a6.66,6.66,0,0,0-5.14-4.11V190H81.61v7.93a6.68,6.68,0,0,0-5.16,6.49,20.64,20.64,0,0,0,.61,5l3,11.94a3.85,3.85,0,0,0-.3,6.9L69,262.53a6.25,6.25,0,0,0,1.68,6.41l0,0A3.85,3.85,0,0,0,76,269l.51-.49a1.25,1.25,0,0,1,1.71,0l.51.49A3.88,3.88,0,0,0,84,269l.51-.49a1.25,1.25,0,0,1,1.71,0l.51.49A3.88,3.88,0,0,0,92,269l.51-.49a1.25,1.25,0,0,1,1.71,0l.51.49a3.85,3.85,0,0,0,5.28,0l.52-.49a1.25,1.25,0,0,1,1.71,0l.51.49a3.87,3.87,0,0,0,5.25,0l0,0a6.25,6.25,0,0,0,1.67-6.41Zm-28.1-36.4a1.29,1.29,0,0,1,0-2.58H97.1a1.29,1.29,0,1,1,0,2.58ZM79,204.42a4.1,4.1,0,0,1,7.9-1.52L88.16,206a1.29,1.29,0,0,0,1.19.82,1.3,1.3,0,0,0,1.2-.82l1.23-3.06a4.1,4.1,0,0,1,7.9,1.52v1.09a8.86,8.86,0,0,1-.27,2.18L96.09,221H82.62l-3.06-12.22a18.07,18.07,0,0,1-.53-4.33Zm-4.35,62.17-.51.49a1.25,1.25,0,0,1-1.71,0l0,0a3.68,3.68,0,0,1-1-3.76l10.82-34.59h1.63l-7.39,36.93a3.79,3.79,0,0,0-1.84.95Zm8,0-.51.49a1.25,1.25,0,0,1-1.71,0l-.51-.49a4.33,4.33,0,0,0-.88-.61l7.45-37.27h1.52v38l-.08-.08a3.86,3.86,0,0,0-5.28,0Zm15.53.49a1.25,1.25,0,0,1-1.71,0l-.52-.49a3.86,3.86,0,0,0-5.28,0l-.08.08v-38h1.53L99.62,266a3.92,3.92,0,0,0-.88.6Zm8,0,0,0a1.25,1.25,0,0,1-1.71,0l-.52-.49a3.71,3.71,0,0,0-1.84-.95L94.8,228.71h1.62l10.83,34.59a3.7,3.7,0,0,1-1,3.76Zm0,0" transform="translate(19 -30)"/><path class="cls-2" d="M73.6,221.76a1.28,1.28,0,0,0,.23-1.1L68.67,200a1.29,1.29,0,0,0-.74-.87l-8.25-3.54v-4.31A1.29,1.29,0,0,0,58.39,190H45.48a1.29,1.29,0,0,0-1.29,1.29v4.31l-8.25,3.54a1.29,1.29,0,0,0-.74.87L30,220.66a1.29,1.29,0,0,0,1.25,1.6h6.45a1.31,1.31,0,0,0,1.24-.92l1.82-6.07.82,12.24a1.28,1.28,0,0,0,1.28,1.2H61a1.28,1.28,0,0,0,1.28-1.2l.82-12.24,1.82,6.07a1.31,1.31,0,0,0,1.24.92h6.45a1.28,1.28,0,0,0,1-.5ZM51.93,210.68l-4.62-12.94h9.25Zm-5.16-18.1H57.1v2.58H46.77Zm-10,27.1H32.94l4.61-18.42.69-.3,2,7.1ZM42.9,208a.86.86,0,0,0,0-.27l-2.22-7.77,4.1-1.76,5.91,16.56v11.39H44.11Zm16.86,18.15H53.23V214.74l5.91-16.56,4.1,1.76L61,207.71h0A1.1,1.1,0,0,0,61,208Zm7.33-6.45L63.6,208.06l2-7.1.69.3,4.61,18.42Zm0,0" transform="translate(19 -30)"/><path class="cls-2" d="M61,231.29H42.9a1.29,1.29,0,0,0-1.29,1.29v36.13A1.29,1.29,0,0,0,42.9,270h5.16a1.29,1.29,0,0,0,1.28-1.09l2.59-16.44,2.6,16.44A1.29,1.29,0,0,0,55.81,270H61a1.29,1.29,0,0,0,1.29-1.29V232.58A1.29,1.29,0,0,0,61,231.29Zm-1.29,36.13H56.91L53.21,244a1.29,1.29,0,0,0-2.55,0L47,267.42H44.19V233.87H59.68Zm0,0" transform="translate(19 -30)"/><path d="M43.33,68.67a8,8,0,1,0-8-8,8,8,0,0,0,8,8Zm0-13.34A5.34,5.34,0,1,1,38,60.67a5.34,5.34,0,0,1,5.33-5.34Zm0,0" transform="translate(19 -30)"/><path d="M40.67,40.67a6.66,6.66,0,0,1,6.66,6.66,1.34,1.34,0,1,0,2.67,0,6.67,6.67,0,0,1,6.67-6.66,1.34,1.34,0,0,0,0-2.67A6.67,6.67,0,0,1,50,31.33a1.34,1.34,0,0,0-2.67,0A6.67,6.67,0,0,1,40.67,38a1.34,1.34,0,1,0,0,2.67Zm8-4.54a9.42,9.42,0,0,0,3.2,3.2,9.42,9.42,0,0,0-3.2,3.2,9.42,9.42,0,0,0-3.2-3.2,9.42,9.42,0,0,0,3.2-3.2Zm0,0" transform="translate(19 -30)"/><path d="M94,96.67A6.69,6.69,0,0,1,87.33,90a1.33,1.33,0,0,0-2.66,0A6.69,6.69,0,0,1,78,96.67a1.33,1.33,0,0,0,0,2.66A6.69,6.69,0,0,1,84.67,106a1.33,1.33,0,0,0,2.66,0A6.69,6.69,0,0,1,94,99.33a1.33,1.33,0,0,0,0-2.66Zm-8,4.53A9.42,9.42,0,0,0,82.8,98,9.42,9.42,0,0,0,86,94.8,9.42,9.42,0,0,0,89.2,98a9.42,9.42,0,0,0-3.2,3.2Zm0,0" transform="translate(19 -30)"/><path d="M62,56.67a4,4,0,0,0-4,4V66H51.33v2.67h8a1.34,1.34,0,0,0,1.34-1.34V60.67a1.33,1.33,0,1,1,2.66,0V70A1.32,1.32,0,0,1,62,71.33H51.33A1.34,1.34,0,0,0,50,72.67v6.66a1.34,1.34,0,0,0,.39,1l7.22,7.21a1.36,1.36,0,0,1,.39,1v12.23a1.34,1.34,0,0,1-2.67,0V90a1.33,1.33,0,0,0-.39-.94l-5.33-5.34a1.34,1.34,0,0,0-1.89,0l-4,4a1.34,1.34,0,0,0,0,1.89l3.22,3.22a1.33,1.33,0,0,1,.39.94V106a1.33,1.33,0,0,1-2.66,0V95.33a1.33,1.33,0,0,0-.39-.94L38.39,88.5a1.3,1.3,0,0,1-.39-.94V83.33h2.67a4,4,0,0,0,0-8H38v-4H35.33v5.34A1.34,1.34,0,0,0,36.67,78h4a1.34,1.34,0,0,1,0,2.67H34a1.33,1.33,0,0,1-1.33-1.34V70A1.32,1.32,0,0,1,34,68.67V66a4,4,0,0,0-4,4v9.33a4,4,0,0,0,4,4h1.33v4.23a4,4,0,0,0,1.18,2.83L42,95.89V106a4,4,0,0,0,8,0V93.77a4,4,0,0,0-1.17-2.83l-2.28-2.27,2.12-2.12,4,4v10.12a4,4,0,0,0,8,0V88.44a4,4,0,0,0-1.18-2.83l-6.82-6.83V74H62a4,4,0,0,0,4-4V60.67a4,4,0,0,0-4-4Zm0,0" transform="translate(19 -30)"/><path d="M91.33,46a8,8,0,1,0-8-8,8,8,0,0,0,8,8Zm0-13.33A5.33,5.33,0,1,1,86,38a5.33,5.33,0,0,1,5.33-5.33Zm0,0" transform="translate(19 -30)"/><path d="M106,43.33H98V46h8a1.33,1.33,0,0,1,1.33,1.33v8a1.33,1.33,0,1,1-2.66,0V50a1.33,1.33,0,0,0-1.34-1.33H98A1.32,1.32,0,0,0,96.67,50V64.9a1.33,1.33,0,0,1-.39.94l-4.56,4.55a1.34,1.34,0,0,0,0,1.89l6.12,6.11a1.34,1.34,0,0,1,0,1.89l-.23.22a1.34,1.34,0,0,1-1.89,0l-8.23-8.23a1.33,1.33,0,0,1,0-1.88l3.45-3.45a1.33,1.33,0,0,0,0-1.88l-4-4a1.33,1.33,0,0,0-1.88,0l-5.34,5.33a1.33,1.33,0,0,0-.39.94V78a1.33,1.33,0,0,1-2.66,0V65.77a1.33,1.33,0,0,1,.39-.94l7.22-7.22a1.33,1.33,0,0,0,.39-.94V50a1.33,1.33,0,0,0-1.34-1.33h-8A1.34,1.34,0,0,1,74,47.33V38a1.34,1.34,0,0,1,2.67,0v6.67A1.33,1.33,0,0,0,78,46h5.33V43.33h-4V38a4,4,0,0,0-8,0v9.33a4,4,0,0,0,4,4H82v4.79l-6.83,6.82A4,4,0,0,0,74,65.77V78a4,4,0,0,0,8,0V67.89l4-4L88.11,66l-2.5,2.5a4,4,0,0,0,0,5.66h0l8.23,8.23a4,4,0,0,0,5.65,0l.23-.23a4,4,0,0,0,0-5.65l-5.17-5.18,3.61-3.61a3.94,3.94,0,0,0,1.17-2.82V51.33H102v4a4,4,0,0,0,8,0v-8a4,4,0,0,0-4-4Zm0,0" transform="translate(19 -30)"/><rect x="109" y="6.67" width="2.67" height="4"/><path d="M47.33,62V58H44.67v2.67H42v2.66h4A1.32,1.32,0,0,0,47.33,62Zm0,0" transform="translate(19 -30)"/></svg>