<svg id="Layer_1" data-name="Layer 1" xmlns="http://www.w3.org/2000/svg" viewBox="0 0 140 140"><path d="M43.33,68.67a8,8,0,1,0-8-8,8,8,0,0,0,8,8Zm0-13.34A5.34,5.34,0,1,1,38,60.67a5.34,5.34,0,0,1,5.33-5.34Zm0,0"/><path d="M40.67,40.67a6.66,6.66,0,0,1,6.66,6.66,1.34,1.34,0,1,0,2.67,0,6.67,6.67,0,0,1,6.67-6.66,1.34,1.34,0,0,0,0-2.67A6.67,6.67,0,0,1,50,31.33a1.34,1.34,0,0,0-2.67,0A6.67,6.67,0,0,1,40.67,38a1.34,1.34,0,1,0,0,2.67Zm8-4.54a9.42,9.42,0,0,0,3.2,3.2,9.42,9.42,0,0,0-3.2,3.2,9.42,9.42,0,0,0-3.2-3.2,9.42,9.42,0,0,0,3.2-3.2Zm0,0"/><path d="M94,96.67A6.69,6.69,0,0,1,87.33,90a1.33,1.33,0,0,0-2.66,0A6.69,6.69,0,0,1,78,96.67a1.33,1.33,0,0,0,0,2.66A6.69,6.69,0,0,1,84.67,106a1.33,1.33,0,0,0,2.66,0A6.69,6.69,0,0,1,94,99.33a1.33,1.33,0,0,0,0-2.66Zm-8,4.53A9.42,9.42,0,0,0,82.8,98,9.42,9.42,0,0,0,86,94.8,9.42,9.42,0,0,0,89.2,98a9.42,9.42,0,0,0-3.2,3.2Zm0,0"/><path d="M62,56.67a4,4,0,0,0-4,4V66H51.33v2.67h8a1.34,1.34,0,0,0,1.34-1.34V60.67a1.33,1.33,0,1,1,2.66,0V70A1.32,1.32,0,0,1,62,71.33H51.33A1.34,1.34,0,0,0,50,72.67v6.66a1.34,1.34,0,0,0,.39,1l7.22,7.21a1.36,1.36,0,0,1,.39,1v12.23a1.34,1.34,0,0,1-2.67,0V90a1.33,1.33,0,0,0-.39-.94l-5.33-5.34a1.34,1.34,0,0,0-1.89,0l-4,4a1.34,1.34,0,0,0,0,1.89l3.22,3.22a1.33,1.33,0,0,1,.39.94V106a1.33,1.33,0,0,1-2.66,0V95.33a1.33,1.33,0,0,0-.39-.94L38.39,88.5a1.3,1.3,0,0,1-.39-.94V83.33h2.67a4,4,0,0,0,0-8H38v-4H35.33v5.34A1.34,1.34,0,0,0,36.67,78h4a1.34,1.34,0,0,1,0,2.67H34a1.33,1.33,0,0,1-1.33-1.34V70A1.32,1.32,0,0,1,34,68.67V66a4,4,0,0,0-4,4v9.33a4,4,0,0,0,4,4h1.33v4.23a4,4,0,0,0,1.18,2.83L42,95.89V106a4,4,0,0,0,8,0V93.77a4,4,0,0,0-1.17-2.83l-2.28-2.27,2.12-2.12,4,4v10.12a4,4,0,0,0,8,0V88.44a4,4,0,0,0-1.18-2.83l-6.82-6.83V74H62a4,4,0,0,0,4-4V60.67a4,4,0,0,0-4-4Zm0,0"/><path d="M91.33,46a8,8,0,1,0-8-8,8,8,0,0,0,8,8Zm0-13.33A5.33,5.33,0,1,1,86,38a5.33,5.33,0,0,1,5.33-5.33Zm0,0"/><path d="M106,43.33H98V46h8a1.33,1.33,0,0,1,1.33,1.33v8a1.33,1.33,0,1,1-2.66,0V50a1.33,1.33,0,0,0-1.34-1.33H98A1.32,1.32,0,0,0,96.67,50V64.9a1.33,1.33,0,0,1-.39.94l-4.56,4.55a1.34,1.34,0,0,0,0,1.89l6.12,6.11a1.34,1.34,0,0,1,0,1.89l-.23.22a1.34,1.34,0,0,1-1.89,0l-8.23-8.23a1.33,1.33,0,0,1,0-1.88l3.45-3.45a1.33,1.33,0,0,0,0-1.88l-4-4a1.33,1.33,0,0,0-1.88,0l-5.34,5.33a1.33,1.33,0,0,0-.39.94V78a1.33,1.33,0,0,1-2.66,0V65.77a1.33,1.33,0,0,1,.39-.94l7.22-7.22a1.33,1.33,0,0,0,.39-.94V50a1.33,1.33,0,0,0-1.34-1.33h-8A1.34,1.34,0,0,1,74,47.33V38a1.34,1.34,0,0,1,2.67,0v6.67A1.33,1.33,0,0,0,78,46h5.33V43.33h-4V38a4,4,0,0,0-8,0v9.33a4,4,0,0,0,4,4H82v4.79l-6.83,6.82A4,4,0,0,0,74,65.77V78a4,4,0,0,0,8,0V67.89l4-4L88.11,66l-2.5,2.5a4,4,0,0,0,0,5.66h0l8.23,8.23a4,4,0,0,0,5.65,0l.23-.23a4,4,0,0,0,0-5.65l-5.17-5.18,3.61-3.61a3.94,3.94,0,0,0,1.17-2.82V51.33H102v4a4,4,0,0,0,8,0v-8a4,4,0,0,0-4-4Zm0,0"/><rect x="90" y="36.67" width="2.67" height="4"/><path d="M47.33,62V58H44.67v2.67H42v2.66h4A1.32,1.32,0,0,0,47.33,62Zm0,0"/></svg>